HIERARCHY
ROOT Hips
{
	OFFSET 0.000000 0.000000 0.000000
	CHANNELS 6 Xposition Yposition Zposition Zrotation Yrotation Xrotation 
	JOINT LowerBack
	{
		OFFSET 0.000000 0.000000 0.000000
		CHANNELS 3 Zrotation Yrotation Xrotation
		JOINT Spine
		{
			OFFSET 0.028270 2.035590 -0.193380
			CHANNELS 3 Zrotation Yrotation Xrotation
			JOINT Spine1
			{
				OFFSET 0.056720 2.048850 -0.042750
				CHANNELS 3 Zrotation Yrotation Xrotation
				JOINT Neck
				{
					OFFSET 0.000000 0.000000 0.000000
					CHANNELS 3 Zrotation Yrotation Xrotation
					JOINT Neck1
					{
						OFFSET -0.054170 1.746240 0.172020
						CHANNELS 3 Zrotation Yrotation Xrotation
						JOINT Head
						{
							OFFSET 0.104070 1.761360 -0.123970
							CHANNELS 3 Zrotation Yrotation Xrotation
							End Site
							{
								OFFSET 0.000000 0.000000 0.000000
							}
						}
					}
				}
				JOINT LeftShoulder
				{
					OFFSET 0.000000 0.000000 0.000000
					CHANNELS 3 Zrotation Yrotation Xrotation
					JOINT LeftArm
					{
						OFFSET 3.362410 1.200890 -0.311210
						CHANNELS 3 Zrotation Yrotation Xrotation
						JOINT LeftForeArm
						{
							OFFSET 4.983000 -0.000000 -0.000000
							CHANNELS 3 Zrotation Yrotation Xrotation
							JOINT LeftHand
							{
								OFFSET 3.483560 -0.000000 -0.000000
								CHANNELS 3 Zrotation Yrotation Xrotation
								JOINT LeftFingerBase
								{
									OFFSET 0.000000 0.000000 0.000000
									CHANNELS 3 Zrotation Yrotation Xrotation
									JOINT LeftHandIndex1
									{
										OFFSET 0.715260 -0.000000 -0.000000
										CHANNELS 3 Zrotation Yrotation Xrotation
										End Site
										{
											OFFSET 0.000000 0.000000 0.000000
										}
									}
								}
								JOINT LThumb
								{
									OFFSET 0.000000 0.000000 0.000000
									CHANNELS 3 Zrotation Yrotation Xrotation
									End Site
									{
										OFFSET 0.000000 0.000000 0.000000
									}
								}
							}
						}
					}
				}
				JOINT RightShoulder
				{
					OFFSET 0.000000 0.000000 0.000000
					CHANNELS 3 Zrotation Yrotation Xrotation
					JOINT RightArm
					{
						OFFSET -3.136600 1.374050 -0.404650
						CHANNELS 3 Zrotation Yrotation Xrotation
						JOINT RightForeArm
						{
							OFFSET -5.241900 -0.000000 -0.000000
							CHANNELS 3 Zrotation Yrotation Xrotation
							JOINT RightHand
							{
								OFFSET -3.444170 -0.000000 -0.000000
								CHANNELS 3 Zrotation Yrotation Xrotation
								JOINT RightFingerBase
								{
									OFFSET 0.000000 0.000000 0.000000
									CHANNELS 3 Zrotation Yrotation Xrotation
									JOINT RightHandIndex1
									{
										OFFSET -0.622530 -0.000000 -0.000000
										CHANNELS 3 Zrotation Yrotation Xrotation
										End Site
										{
											OFFSET 0.000000 0.000000 0.000000
										}
									}
								}
								JOINT RThumb
								{
									OFFSET 0.000000 0.000000 0.000000
									CHANNELS 3 Zrotation Yrotation Xrotation
									End Site
									{
										OFFSET 0.000000 0.000000 0.000000
									}
								}
							}
						}
					}
				}
			}
		}
	}
}
}
MOTION
Frames: 18
Frame Time: 0.008333
-2.726358 16.806866 -0.744492 -152.410462 83.815544 -124.901695 3.758449 -3.858059 9.268054 0.653174 -3.981502 -0.870432 -3.544962 -3.910565 0.608593 1.951558 -15.344878 -5.516589 -2.178950 -0.175246 0.250340 0.000000 0.000000 0.000000 10.818431 9.444717 -1.770881 -60.996353 -13.612052 6.301454 -178.666777 -60.964485 179.915605 8.641047 1.267187 0.058570 -0.304401 0.547088 -0.000000 0.000000 0.000000 0.000000 0.000000 0.000000 0.000000 -0.512078 -13.353939 -0.310408 69.284556 -34.745288 17.465845 0.081973 86.936703 -0.031070 -13.899976 6.252445 -0.799455 0.184086 -0.225050 -0.000000 0.000000 0.000000 0.000000 0.000000 0.000000 0.000000 
-2.516856 16.864371 -0.745463 -152.550444 83.725968 -124.790932 3.953718 -3.922385 9.160301 0.716047 -4.054641 -0.898247 -3.497566 -3.984262 0.633130 1.948522 -15.551143 -5.672998 -2.144163 -0.170899 0.208178 0.000000 0.000000 0.000000 11.122787 9.588656 -1.758188 -60.949796 -12.426854 6.529332 -178.692107 -60.214063 179.915169 8.725086 1.230440 0.056293 -0.306238 0.546053 -0.000000 0.000000 0.000000 0.000000 0.000000 0.000000 0.000000 -0.698386 -13.465517 -0.330096 69.485967 -35.080994 16.854701 0.074254 87.678496 -0.030168 -13.237501 6.993511 -0.849969 0.175314 -0.238120 -0.000000 0.000000 0.000000 0.000000 0.000000 0.000000 0.000000 
-2.308367 16.911818 -0.746239 -152.977287 83.653478 -125.009659 4.121349 -3.984455 9.098899 0.770842 -4.124517 -0.916883 -3.458587 -4.053260 0.652323 1.951244 -15.736936 -5.831833 -2.110038 -0.166443 0.164437 0.000000 0.000000 0.000000 11.386031 9.696095 -1.736746 -60.922502 -11.182936 6.810991 -178.724837 -59.520640 179.914659 8.827994 1.196633 0.054416 -0.308209 0.544254 -0.000000 0.000000 0.000000 0.000000 0.000000 0.000000 0.000000 -0.877654 -13.547428 -0.332353 69.786024 -35.323789 16.149305 0.066416 88.337114 -0.029409 -12.618550 7.707413 -0.891585 0.166830 -0.251118 -0.000000 0.000000 0.000000 0.000000 0.000000 0.000000 0.000000 
-2.100874 16.948280 -0.746778 -153.708981 83.601037 -125.580700 4.253078 -4.045785 9.080796 0.816055 -4.192953 -0.926689 -3.425406 -4.119539 0.666825 1.957884 -15.897404 -5.990359 -2.075860 -0.161876 0.120072 0.000000 0.000000 0.000000 11.617531 9.770520 -1.708325 -60.925735 -9.879310 7.144754 -178.765447 -58.891263 179.914253 8.932257 1.157542 0.052034 -0.309520 0.541974 -0.000000 0.000000 0.000000 0.000000 0.000000 0.000000 0.000000 -1.052560 -13.596567 -0.318513 70.178772 -35.469503 15.361573 0.058759 88.895562 -0.028754 -12.052212 8.342928 -0.920902 0.158953 -0.263165 -0.000000 0.000000 0.000000 0.000000 0.000000 0.000000 0.000000 
-1.894246 16.972970 -0.746911 -154.771454 83.570560 -126.531187 4.339831 -4.107681 9.099711 0.849685 -4.261537 -0.928649 -3.397046 -4.184817 0.677219 1.970491 -16.023051 -6.145721 -2.041856 -0.157268 0.076117 0.000000 0.000000 0.000000 11.825746 9.823915 -1.673797 -60.967933 -8.527485 7.536340 -178.813098 -58.341322 179.914117 9.020552 1.100052 0.048046 -0.309484 0.539706 -0.000000 0.000000 0.000000 0.000000 0.000000 0.000000 0.000000 -1.217122 -13.606272 -0.292612 70.651198 -35.521433 14.506597 0.051576 89.346392 -0.028204 -11.552614 8.861435 -0.936920 0.152064 -0.273592 -0.000000 0.000000 0.000000 0.000000 0.000000 0.000000 0.000000 
-1.688365 16.985060 -0.746579 -156.119935 83.560691 -127.813623 4.381939 -4.168971 9.145823 0.872093 -4.329218 -0.924620 -3.371505 -4.248297 0.684723 1.986531 -16.115143 -6.296248 -2.006688 -0.152564 0.033326 0.000000 0.000000 0.000000 12.016381 9.859247 -1.634902 -61.056752 -7.127667 7.983248 -178.867458 -57.876369 179.914425 9.073988 1.025418 0.042346 -0.307291 0.537404 -0.000000 0.000000 0.000000 0.000000 0.000000 0.000000 0.000000 -1.378190 -13.577718 -0.256308 71.196333 -35.478600 13.596783 0.045168 89.683558 -0.027698 -11.120209 9.241444 -0.940238 0.146315 -0.281999 -0.000000 0.000000 0.000000 0.000000 0.000000 0.000000 0.000000 
-1.483110 16.983963 -0.745709 -157.706452 83.567809 -129.372909 4.381797 -4.228205 9.206468 0.883912 -4.394497 -0.917117 -3.348286 -4.308728 0.690141 2.005474 -16.175880 -6.440950 -1.969327 -0.147722 -0.007719 0.000000 0.000000 0.000000 12.190871 9.881232 -1.592700 -61.193025 -5.686947 8.484334 -178.927077 -57.506746 179.915298 9.077533 0.923587 0.034132 -0.302366 0.535419 -0.000000 0.000000 0.000000 0.000000 0.000000 0.000000 0.000000 -1.539115 -13.513631 -0.212444 71.798700 -35.342953 12.657484 0.039753 89.908849 -0.027277 -10.766915 9.479965 -0.933753 0.141987 -0.288291 -0.000000 0.000000 0.000000 0.000000 0.000000 0.000000 0.000000 
-1.278371 16.969274 -0.744255 -159.472603 83.587457 -131.140218 4.345708 -4.282895 9.267831 0.886319 -4.454672 -0.908817 -3.328425 -4.363632 0.694569 2.028241 -16.210150 -6.580086 -1.929396 -0.142730 -0.046805 0.000000 0.000000 0.000000 12.346499 9.895099 -1.547875 -61.373115 -4.218639 9.037274 -178.989400 -57.241784 179.916828 9.018926 0.793600 0.023402 -0.294373 0.533792 -0.000000 0.000000 0.000000 0.000000 0.000000 0.000000 0.000000 -1.699216 -13.418921 -0.163588 72.443926 -35.119346 11.704599 -179.964579 89.966900 179.973064 -10.490798 9.589206 -0.920365 0.139107 -0.292670 -0.000000 0.000000 0.000000 0.000000 0.000000 0.000000 0.000000 
-1.074036 16.940750 -0.742258 -161.349190 83.614833 -133.030213 4.283031 -4.329159 9.312392 0.880885 -4.505467 -0.902663 -3.314536 -4.408933 0.700758 2.058059 -16.228328 -6.716515 -1.886867 -0.137565 -0.084423 0.000000 0.000000 0.000000 12.477283 9.911652 -1.501048 -61.589306 -2.748662 9.642791 -179.050805 -57.096240 179.919054 8.889995 0.645231 0.011355 -0.283293 0.532187 -0.000000 0.000000 0.000000 0.000000 0.000000 0.000000 0.000000 -1.852409 -13.303858 -0.112505 73.116747 -34.813770 10.749140 -179.967938 89.925124 179.973331 -10.279503 9.590968 -0.902174 0.137524 -0.295539 -0.000000 0.000000 0.000000 0.000000 0.000000 0.000000 0.000000 
-0.870363 16.898715 -0.739971 -163.277606 83.644261 -134.984610 4.206401 -4.365156 9.342174 0.869511 -4.544588 -0.899011 -3.309534 -4.442415 0.705928 2.095794 -16.236934 -6.850308 -1.842953 -0.132320 -0.120598 0.000000 0.000000 0.000000 12.568108 9.921667 -1.451276 -61.827226 -1.284437 10.282623 -179.107456 -57.069911 179.921946 8.689705 0.467838 -0.002706 -0.269359 0.530962 -0.000000 0.000000 0.000000 0.000000 0.000000 0.000000 0.000000 -1.994765 -13.175209 -0.059260 73.800761 -34.429583 9.807380 -179.970333 89.948845 179.973487 -10.130730 9.522938 -0.883279 0.137125 -0.297515 -0.000000 0.000000 0.000000 0.000000 0.000000 0.000000 0.000000 
-0.667499 16.843646 -0.737732 -165.195608 83.670608 -136.934079 4.129058 -4.387553 9.353639 0.853924 -4.568227 -0.898474 -3.318041 -4.460295 0.710269 2.146947 -16.245220 -6.984651 -1.799976 -0.127129 -0.156186 0.000000 0.000000 0.000000 12.604814 9.929122 -1.397684 -62.074807 0.145810 10.947836 -179.154804 -57.172000 179.925442 8.420882 0.274876 -0.017178 -0.253155 0.529663 -0.000000 0.000000 0.000000 0.000000 0.000000 0.000000 0.000000 -2.110016 -13.042861 -0.004991 74.479632 -33.971751 8.880041 0.028000 89.985069 -0.026463 -10.024821 9.418795 -0.864980 0.137560 -0.299219 -0.000000 0.000000 0.000000 0.000000 0.000000 0.000000 0.000000 
-0.465685 16.776325 -0.735806 -167.067051 83.689785 -138.838366 4.061511 -4.394170 9.348754 0.835270 -4.573772 -0.900667 -3.344527 -4.459923 0.713168 2.217976 -16.260059 -7.122368 -1.760979 -0.122179 -0.192066 0.000000 0.000000 0.000000 12.573347 9.935945 -1.338931 -62.320180 1.516058 11.624165 -179.189002 -57.407556 179.929445 8.091753 0.083092 -0.030356 -0.235473 0.527728 -0.000000 0.000000 0.000000 0.000000 0.000000 0.000000 0.000000 -2.178558 -12.915304 0.049503 75.136079 -33.441718 7.969377 0.026895 89.894572 -0.026518 -9.945696 9.309575 -0.848678 0.138506 -0.301213 -0.000000 0.000000 0.000000 0.000000 0.000000 0.000000 0.000000 
-0.265430 16.697990 -0.734698 -168.866484 83.696317 -140.678466 4.014102 -4.384160 9.341840 0.814420 -4.560051 -0.903415 -3.393659 -4.439971 0.710791 2.316159 -16.282088 -7.263758 -1.730494 -0.117797 -0.228644 0.000000 0.000000 0.000000 12.458472 9.933770 -1.272845 -62.554331 2.810936 12.289141 -179.207524 -57.777676 179.933814 7.716405 -0.097152 -0.041135 -0.217236 0.524813 0.000000 0.000000 0.000000 0.000000 0.000000 0.000000 0.000000 -2.175969 -12.795331 0.104730 75.752188 -32.838656 7.072589 0.026296 89.791501 -0.026684 -9.883101 9.221313 -0.835973 0.139707 -0.303961 -0.000000 0.000000 0.000000 0.000000 0.000000 0.000000 0.000000 
-0.067287 16.610211 -0.734836 -170.600680 83.684870 -142.470280 3.992419 -4.359215 9.352152 0.791468 -4.528520 -0.903938 -3.469294 -4.401712 0.697596 2.449085 -16.301119 -7.406962 -1.714031 -0.114411 -0.265870 0.000000 0.000000 0.000000 12.247493 9.912860 -1.196445 -62.773142 4.021391 12.916152 -179.209590 -58.280227 179.938350 7.316653 -0.263865 -0.049608 -0.199524 0.520916 0.000000 0.000000 0.000000 0.000000 0.000000 0.000000 0.000000 -2.075108 -12.676497 0.161089 76.311323 -32.159019 6.185574 0.026337 89.677418 -0.026975 -9.833306 9.172114 -0.827867 0.140987 -0.307760 -0.000000 0.000000 0.000000 0.000000 0.000000 0.000000 0.000000 
0.128280 16.514522 -0.736556 -172.215806 83.649926 -144.153648 4.004113 -4.317661 9.383567 0.767208 -4.477228 -0.901419 -3.575092 -4.343173 0.672740 2.626848 -16.314637 -7.551598 -1.716493 -0.112394 -0.303976 0.000000 0.000000 0.000000 11.937390 9.873001 -1.108772 -62.982330 5.126177 13.490690 -179.196362 -58.922397 179.942915 6.911386 -0.374653 -0.053272 -0.183270 0.514625 -0.000000 0.000000 0.000000 0.000000 0.000000 0.000000 0.000000 -1.844874 -12.559676 0.217810 76.792393 -31.393468 5.304051 0.027120 89.548308 -0.027399 -9.796897 9.153947 -0.823759 0.142362 -0.312536 -0.000000 0.000000 0.000000 0.000000 0.000000 0.000000 0.000000 
0.320628 16.412992 -0.740490 -173.651787 83.586642 -145.673797 4.056895 -4.260633 9.452896 0.742306 -4.407197 -0.893998 -3.714107 -4.265394 0.629443 2.856948 -16.300018 -7.691009 -1.744543 -0.112337 -0.341707 0.000000 0.000000 0.000000 11.521756 9.801640 -1.006970 -63.189179 6.125300 13.987854 -179.170843 -59.704683 179.947280 6.530126 -0.417331 -0.052222 -0.169549 0.505631 -0.000000 0.000000 0.000000 0.000000 0.000000 0.000000 0.000000 -1.454631 -12.426617 0.275030 77.175753 -30.535093 4.418751 0.029006 89.391118 -0.028000 -9.787703 9.155015 -0.823750 0.144004 -0.318092 -0.000000 0.000000 0.000000 0.000000 0.000000 0.000000 0.000000 
0.508942 16.308113 -0.747174 -174.862728 83.492764 -146.994643 4.152981 -4.193690 9.581050 0.717446 -4.323950 -0.879433 -3.884604 -4.174103 0.560078 3.139948 -16.218866 -7.815261 -1.802582 -0.114687 -0.377065 0.000000 0.000000 0.000000 10.997505 9.693160 -0.887478 -63.410066 7.026327 14.381038 -179.138240 -60.630400 179.951101 6.210431 -0.427601 -0.049647 -0.159376 0.495344 -0.000000 0.000000 0.000000 0.000000 0.000000 0.000000 0.000000 -0.893105 -12.246186 0.332274 77.447564 -29.566143 3.533222 0.032959 89.168599 -0.028858 -9.832076 9.167363 -0.829242 0.146152 -0.324090 -0.000000 0.000000 0.000000 0.000000 0.000000 0.000000 0.000000 
0.692974 16.201924 -0.757206 -175.684737 83.371306 -147.939190 4.304044 -4.111296 9.763336 0.693870 -4.222002 -0.859696 -4.089536 -4.064388 0.460763 3.482584 -16.048266 -7.914207 -1.896852 -0.120060 -0.407561 0.000000 0.000000 0.000000 10.368207 9.540725 -0.749830 -63.659565 7.824455 14.664694 -179.104320 -61.711610 179.954242 5.977761 -0.342824 -0.042451 -0.153412 0.481696 -0.000000 0.000000 0.000000 0.000000 0.000000 0.000000 0.000000 -0.128323 -11.997809 0.388040 77.581998 -28.489113 2.631909 0.039156 88.874025 -0.030070 -9.957002 9.141893 -0.838133 0.149329 -0.329831 -0.000000 0.000000 0.000000 0.000000 0.000000 0.000000 0.000000 
